<mxfile host="app.diagrams.net" modified="2022-02-18T05:44:04.999Z" agent="5.0 (Windows NT 10.0; Win64; x64) AppleWebKit/537.36 (KHTML, like Gecko) Chrome/98.0.4758.102 Safari/537.36" etag="YrYBYO9oi4n1mbmKfci5" version="16.5.6" type="github">
  <diagram id="5rU9of_TcTJ-XJH-yoMr" name="Page-1">
    <mxGraphModel dx="1422" dy="794" grid="0" gridSize="10" guides="1" tooltips="1" connect="1" arrows="1" fold="1" page="1" pageScale="1" pageWidth="827" pageHeight="1169" math="0" shadow="0">
      <root>
        <mxCell id="0" />
        <mxCell id="1" parent="0" />
        <mxCell id="9wIEi08oW7rhxo8WKQpp-2" value="&lt;font face=&quot;Lucida Console&quot;&gt;class Point3d&amp;nbsp;&lt;br&gt;{&lt;br&gt;public:&lt;br&gt;&amp;nbsp; Point3d(float x=0.0, float y=0.0, float z=0.0):&lt;br&gt;&amp;nbsp; &amp;nbsp; _x(x), _y(y), _z(z) {}&lt;br&gt;&amp;nbsp;&amp;nbsp;&lt;br&gt;&amp;nbsp; float x() { return _x; }&lt;br&gt;&amp;nbsp; float y() { return _y; }&lt;br&gt;&amp;nbsp; float z() { return _z; }&lt;br&gt;&lt;br&gt;&amp;nbsp; void x(float xval) { _x = xval; }&lt;br&gt;&lt;br&gt;private:&lt;br&gt;&amp;nbsp; float _x;&lt;br&gt;&amp;nbsp; float _y;&lt;br&gt;&amp;nbsp; float _z;&lt;br&gt;};&lt;br&gt;&lt;/font&gt;" style="text;html=1;strokeColor=none;fillColor=none;align=left;verticalAlign=top;whiteSpace=wrap;rounded=0;" parent="1" vertex="1">
          <mxGeometry x="10" y="12" width="370" height="280" as="geometry" />
        </mxCell>
        <mxCell id="9wIEi08oW7rhxo8WKQpp-3" value="&lt;font face=&quot;Lucida Console&quot;&gt;class Point&lt;br&gt;{&lt;br&gt;public:&lt;br&gt;&amp;nbsp; Point(float xval);&lt;br&gt;&amp;nbsp; virtual ~Point();&lt;br&gt;&amp;nbsp;&amp;nbsp;&lt;br&gt;&amp;nbsp; float x() const;&lt;br&gt;&amp;nbsp; static int PointCount();&lt;br&gt;&lt;br&gt;protected:&lt;br&gt;&amp;nbsp; virtual ostream&amp;amp; print(ostream &amp;amp;os) const;&lt;br&gt;&lt;br&gt;&amp;nbsp; float _x;&lt;br&gt;&amp;nbsp; static int _point_count;&lt;br&gt;};&lt;br&gt;&lt;/font&gt;" style="text;html=1;strokeColor=none;fillColor=none;align=left;verticalAlign=top;whiteSpace=wrap;rounded=0;" parent="1" vertex="1">
          <mxGeometry x="414" y="12" width="370" height="280" as="geometry" />
        </mxCell>
        <mxCell id="9wIEi08oW7rhxo8WKQpp-57" style="edgeStyle=orthogonalEdgeStyle;rounded=0;orthogonalLoop=1;jettySize=auto;html=1;exitX=1;exitY=0.5;exitDx=0;exitDy=0;entryX=0;entryY=0.5;entryDx=0;entryDy=0;fontFamily=Lucida Console;" parent="1" source="9wIEi08oW7rhxo8WKQpp-36" target="9wIEi08oW7rhxo8WKQpp-50" edge="1">
          <mxGeometry relative="1" as="geometry" />
        </mxCell>
        <mxCell id="9wIEi08oW7rhxo8WKQpp-36" value="" style="swimlane;fontStyle=0;childLayout=stackLayout;horizontal=1;startSize=0;horizontalStack=0;resizeParent=1;resizeParentMax=0;resizeLast=0;collapsible=1;marginBottom=0;align=center;fontSize=14;fontFamily=Lucida Console;swimlaneLine=1;" parent="1" vertex="1">
          <mxGeometry x="24" y="328" width="160" height="280" as="geometry" />
        </mxCell>
        <mxCell id="9wIEi08oW7rhxo8WKQpp-34" value="" style="whiteSpace=wrap;html=1;align=center;fontFamily=Lucida Console;" parent="9wIEi08oW7rhxo8WKQpp-36" vertex="1">
          <mxGeometry width="160" height="40" as="geometry" />
        </mxCell>
        <mxCell id="9wIEi08oW7rhxo8WKQpp-40" value="" style="whiteSpace=wrap;html=1;align=center;fontFamily=Lucida Console;" parent="9wIEi08oW7rhxo8WKQpp-36" vertex="1">
          <mxGeometry y="40" width="160" height="40" as="geometry" />
        </mxCell>
        <mxCell id="9wIEi08oW7rhxo8WKQpp-41" value="" style="whiteSpace=wrap;html=1;align=center;fontFamily=Lucida Console;" parent="9wIEi08oW7rhxo8WKQpp-36" vertex="1">
          <mxGeometry y="80" width="160" height="40" as="geometry" />
        </mxCell>
        <mxCell id="9wIEi08oW7rhxo8WKQpp-42" value="" style="whiteSpace=wrap;html=1;align=center;fontFamily=Lucida Console;" parent="9wIEi08oW7rhxo8WKQpp-36" vertex="1">
          <mxGeometry y="120" width="160" height="40" as="geometry" />
        </mxCell>
        <mxCell id="9wIEi08oW7rhxo8WKQpp-43" value="" style="whiteSpace=wrap;html=1;align=center;fontFamily=Lucida Console;" parent="9wIEi08oW7rhxo8WKQpp-36" vertex="1">
          <mxGeometry y="160" width="160" height="40" as="geometry" />
        </mxCell>
        <mxCell id="9wIEi08oW7rhxo8WKQpp-44" value="" style="whiteSpace=wrap;html=1;align=center;fontFamily=Lucida Console;" parent="9wIEi08oW7rhxo8WKQpp-36" vertex="1">
          <mxGeometry y="200" width="160" height="40" as="geometry" />
        </mxCell>
        <mxCell id="9wIEi08oW7rhxo8WKQpp-45" value="" style="whiteSpace=wrap;html=1;align=center;fontFamily=Lucida Console;" parent="9wIEi08oW7rhxo8WKQpp-36" vertex="1">
          <mxGeometry y="240" width="160" height="40" as="geometry" />
        </mxCell>
        <mxCell id="9wIEi08oW7rhxo8WKQpp-47" value="Point::Point(float)" style="whiteSpace=wrap;html=1;align=center;fontFamily=Lucida Console;" parent="1" vertex="1">
          <mxGeometry x="240" y="292" width="160" height="40" as="geometry" />
        </mxCell>
        <mxCell id="9wIEi08oW7rhxo8WKQpp-48" value="Point::~Point()" style="whiteSpace=wrap;html=1;align=center;fontFamily=Lucida Console;" parent="1" vertex="1">
          <mxGeometry x="240" y="344" width="160" height="40" as="geometry" />
        </mxCell>
        <mxCell id="9wIEi08oW7rhxo8WKQpp-49" value="float Point::x()" style="whiteSpace=wrap;html=1;align=center;fontFamily=Lucida Console;" parent="1" vertex="1">
          <mxGeometry x="240" y="396" width="160" height="40" as="geometry" />
        </mxCell>
        <mxCell id="9wIEi08oW7rhxo8WKQpp-50" value="int Point::PointCount()" style="whiteSpace=wrap;html=1;align=center;fontFamily=Lucida Console;" parent="1" vertex="1">
          <mxGeometry x="240" y="448" width="160" height="40" as="geometry" />
        </mxCell>
        <mxCell id="9wIEi08oW7rhxo8WKQpp-51" value="ostream&amp;amp; Point::print(ostream&amp;amp;)" style="whiteSpace=wrap;html=1;align=center;fontFamily=Lucida Console;" parent="1" vertex="1">
          <mxGeometry x="240" y="500" width="160" height="40" as="geometry" />
        </mxCell>
        <mxCell id="9wIEi08oW7rhxo8WKQpp-52" value="float Point::_x" style="whiteSpace=wrap;html=1;align=center;fontFamily=Lucida Console;" parent="1" vertex="1">
          <mxGeometry x="240" y="552" width="160" height="40" as="geometry" />
        </mxCell>
        <mxCell id="9wIEi08oW7rhxo8WKQpp-53" value="int Point::_point_count" style="whiteSpace=wrap;html=1;align=center;fontFamily=Lucida Console;" parent="1" vertex="1">
          <mxGeometry x="240" y="604" width="160" height="40" as="geometry" />
        </mxCell>
        <mxCell id="9wIEi08oW7rhxo8WKQpp-54" style="edgeStyle=orthogonalEdgeStyle;rounded=0;orthogonalLoop=1;jettySize=auto;html=1;exitX=1;exitY=0.5;exitDx=0;exitDy=0;entryX=0;entryY=0.5;entryDx=0;entryDy=0;fontFamily=Lucida Console;" parent="1" source="9wIEi08oW7rhxo8WKQpp-34" target="9wIEi08oW7rhxo8WKQpp-47" edge="1">
          <mxGeometry relative="1" as="geometry" />
        </mxCell>
        <mxCell id="9wIEi08oW7rhxo8WKQpp-55" style="edgeStyle=orthogonalEdgeStyle;rounded=0;orthogonalLoop=1;jettySize=auto;html=1;exitX=1;exitY=0.5;exitDx=0;exitDy=0;entryX=0;entryY=0.5;entryDx=0;entryDy=0;fontFamily=Lucida Console;" parent="1" source="9wIEi08oW7rhxo8WKQpp-40" target="9wIEi08oW7rhxo8WKQpp-48" edge="1">
          <mxGeometry relative="1" as="geometry" />
        </mxCell>
        <mxCell id="9wIEi08oW7rhxo8WKQpp-56" style="edgeStyle=orthogonalEdgeStyle;rounded=0;orthogonalLoop=1;jettySize=auto;html=1;exitX=1;exitY=0.5;exitDx=0;exitDy=0;entryX=0;entryY=0.5;entryDx=0;entryDy=0;fontFamily=Lucida Console;" parent="1" source="9wIEi08oW7rhxo8WKQpp-41" target="9wIEi08oW7rhxo8WKQpp-49" edge="1">
          <mxGeometry relative="1" as="geometry" />
        </mxCell>
        <mxCell id="9wIEi08oW7rhxo8WKQpp-58" style="edgeStyle=orthogonalEdgeStyle;rounded=0;orthogonalLoop=1;jettySize=auto;html=1;exitX=1;exitY=0.5;exitDx=0;exitDy=0;entryX=0;entryY=0.5;entryDx=0;entryDy=0;fontFamily=Lucida Console;" parent="1" source="9wIEi08oW7rhxo8WKQpp-43" target="9wIEi08oW7rhxo8WKQpp-51" edge="1">
          <mxGeometry relative="1" as="geometry" />
        </mxCell>
        <mxCell id="9wIEi08oW7rhxo8WKQpp-59" style="edgeStyle=orthogonalEdgeStyle;rounded=0;orthogonalLoop=1;jettySize=auto;html=1;exitX=1;exitY=0.5;exitDx=0;exitDy=0;entryX=0;entryY=0.5;entryDx=0;entryDy=0;fontFamily=Lucida Console;" parent="1" source="9wIEi08oW7rhxo8WKQpp-44" target="9wIEi08oW7rhxo8WKQpp-52" edge="1">
          <mxGeometry relative="1" as="geometry" />
        </mxCell>
        <mxCell id="9wIEi08oW7rhxo8WKQpp-60" style="edgeStyle=orthogonalEdgeStyle;rounded=0;orthogonalLoop=1;jettySize=auto;html=1;exitX=1;exitY=0.5;exitDx=0;exitDy=0;entryX=0;entryY=0.25;entryDx=0;entryDy=0;fontFamily=Lucida Console;" parent="1" source="9wIEi08oW7rhxo8WKQpp-45" target="9wIEi08oW7rhxo8WKQpp-53" edge="1">
          <mxGeometry relative="1" as="geometry" />
        </mxCell>
        <mxCell id="EI5eYcI0p2kbyzcFv4fI-1" value="&lt;font face=&quot;Courier New&quot;&gt;&lt;b&gt;Point pt;&lt;/b&gt;&lt;/font&gt;" style="text;html=1;resizable=0;autosize=1;align=center;verticalAlign=middle;points=[];fillColor=none;strokeColor=none;rounded=0;" vertex="1" parent="1">
          <mxGeometry x="67" y="620" width="75" height="19" as="geometry" />
        </mxCell>
        <mxCell id="EI5eYcI0p2kbyzcFv4fI-2" value="" style="swimlane;fontStyle=0;childLayout=stackLayout;horizontal=1;startSize=0;horizontalStack=0;resizeParent=1;resizeParentMax=0;resizeLast=0;collapsible=1;marginBottom=0;align=center;fontSize=14;fontFamily=Lucida Console;swimlaneLine=1;" vertex="1" parent="1">
          <mxGeometry x="23" y="752" width="160" height="80" as="geometry" />
        </mxCell>
        <mxCell id="EI5eYcI0p2kbyzcFv4fI-3" value="" style="whiteSpace=wrap;html=1;align=center;fontFamily=Lucida Console;" vertex="1" parent="EI5eYcI0p2kbyzcFv4fI-2">
          <mxGeometry width="160" height="40" as="geometry" />
        </mxCell>
        <mxCell id="EI5eYcI0p2kbyzcFv4fI-4" value="" style="whiteSpace=wrap;html=1;align=center;fontFamily=Lucida Console;" vertex="1" parent="EI5eYcI0p2kbyzcFv4fI-2">
          <mxGeometry y="40" width="160" height="40" as="geometry" />
        </mxCell>
        <mxCell id="EI5eYcI0p2kbyzcFv4fI-10" value="" style="swimlane;fontStyle=0;childLayout=stackLayout;horizontal=1;startSize=0;horizontalStack=0;resizeParent=1;resizeParentMax=0;resizeLast=0;collapsible=1;marginBottom=0;align=center;fontSize=14;fontFamily=Lucida Console;swimlaneLine=1;" vertex="1" parent="1">
          <mxGeometry x="258" y="703" width="160" height="80" as="geometry" />
        </mxCell>
        <mxCell id="EI5eYcI0p2kbyzcFv4fI-11" value="" style="whiteSpace=wrap;html=1;align=center;fontFamily=Lucida Console;" vertex="1" parent="EI5eYcI0p2kbyzcFv4fI-10">
          <mxGeometry width="160" height="40" as="geometry" />
        </mxCell>
        <mxCell id="EI5eYcI0p2kbyzcFv4fI-12" value="" style="whiteSpace=wrap;html=1;align=center;fontFamily=Lucida Console;" vertex="1" parent="EI5eYcI0p2kbyzcFv4fI-10">
          <mxGeometry y="40" width="160" height="40" as="geometry" />
        </mxCell>
        <mxCell id="EI5eYcI0p2kbyzcFv4fI-13" value="" style="swimlane;fontStyle=0;childLayout=stackLayout;horizontal=1;startSize=0;horizontalStack=0;resizeParent=1;resizeParentMax=0;resizeLast=0;collapsible=1;marginBottom=0;align=center;fontSize=14;fontFamily=Lucida Console;swimlaneLine=1;" vertex="1" parent="1">
          <mxGeometry x="258" y="840" width="160" height="80" as="geometry" />
        </mxCell>
        <mxCell id="EI5eYcI0p2kbyzcFv4fI-14" value="" style="whiteSpace=wrap;html=1;align=center;fontFamily=Lucida Console;" vertex="1" parent="EI5eYcI0p2kbyzcFv4fI-13">
          <mxGeometry width="160" height="40" as="geometry" />
        </mxCell>
        <mxCell id="EI5eYcI0p2kbyzcFv4fI-15" value="" style="whiteSpace=wrap;html=1;align=center;fontFamily=Lucida Console;" vertex="1" parent="EI5eYcI0p2kbyzcFv4fI-13">
          <mxGeometry y="40" width="160" height="40" as="geometry" />
        </mxCell>
        <mxCell id="EI5eYcI0p2kbyzcFv4fI-16" value="&lt;font face=&quot;Courier New&quot;&gt;&lt;b&gt;Point pt;&lt;/b&gt;&lt;/font&gt;" style="text;html=1;resizable=0;autosize=1;align=center;verticalAlign=middle;points=[];fillColor=none;strokeColor=none;rounded=0;" vertex="1" parent="1">
          <mxGeometry x="65.5" y="845" width="75" height="19" as="geometry" />
        </mxCell>
        <mxCell id="EI5eYcI0p2kbyzcFv4fI-17" value="&lt;font face=&quot;Courier New&quot;&gt;&lt;b&gt;Member Data Table&lt;/b&gt;&lt;/font&gt;" style="text;html=1;resizable=0;autosize=1;align=center;verticalAlign=middle;points=[];fillColor=none;strokeColor=none;rounded=0;" vertex="1" parent="1">
          <mxGeometry x="272.5" y="795" width="132" height="19" as="geometry" />
        </mxCell>
        <mxCell id="EI5eYcI0p2kbyzcFv4fI-18" value="&lt;font face=&quot;Courier New&quot;&gt;&lt;b&gt;Function Member Table&lt;/b&gt;&lt;/font&gt;" style="text;html=1;resizable=0;autosize=1;align=center;verticalAlign=middle;points=[];fillColor=none;strokeColor=none;rounded=0;" vertex="1" parent="1">
          <mxGeometry x="258.5" y="929" width="161" height="19" as="geometry" />
        </mxCell>
      </root>
    </mxGraphModel>
  </diagram>
</mxfile>
